<svg id="Capa_1" data-name="Capa 1" xmlns="http://www.w3.org/2000/svg" viewBox="0 0 80 80"><defs><style>.cls-1{fill:#c89b3c;}</style></defs><title>Ajustes 20</title><path class="cls-1" d="M0,45.61V34.7a3.89,3.89,0,0,1,2.41-1.64c2.6-.6,5.18-1.3,7.78-2a1,1,0,0,0,.87-.74,21.94,21.94,0,0,1,1.49-3.66,1,1,0,0,0-.05-1.06c-1.42-2.32-2.82-4.66-4.22-7-.92-1.54-.81-2.42.44-3.67l5.85-5.84c1.33-1.32,2.18-1.43,3.81-.45,2.31,1.38,4.63,2.76,6.94,4.17a1,1,0,0,0,1.06.05A20.86,20.86,0,0,1,30,11.44a1,1,0,0,0,.81-.89c.55-2.35,1.16-4.68,1.68-7,.29-1.36.61-2.66,1.91-3.44H45a3.13,3.13,0,0,1,2,2.55c.59,2.66,1.27,5.3,1.88,8a1,1,0,0,0,.76.85,20.43,20.43,0,0,1,3.53,1.44,1.12,1.12,0,0,0,1.26-.06c2.31-1.41,4.63-2.78,6.95-4.17,1.52-.91,2.4-.79,3.67.48Q68,12,70.94,15c1.29,1.29,1.39,2.16.45,3.73-1.4,2.34-2.8,4.68-4.22,7a.89.89,0,0,0,0,1,22.87,22.87,0,0,1,1.5,3.66,1,1,0,0,0,.85.77c2.6.61,5.19,1.28,7.8,1.87A3.5,3.5,0,0,1,80,34.85V45.61a4.06,4.06,0,0,1-2.63,1.71c-2.64.58-5.25,1.26-7.88,1.88a1,1,0,0,0-.86.75,20.05,20.05,0,0,1-1.47,3.59,1.07,1.07,0,0,0,.07,1.2c1.42,2.32,2.82,4.66,4.22,7A2.44,2.44,0,0,1,71,65.28l-5.91,5.9c-1.3,1.29-2.17,1.4-3.74.46-2.34-1.4-4.69-2.79-7-4.21a.88.88,0,0,0-1-.06,20.5,20.5,0,0,1-3.6,1.48,1.19,1.19,0,0,0-.88,1c-.63,2.63-1.29,5.24-2,7.85a2.5,2.5,0,0,1-2.82,2.21H35.74c-1.82,0-2.59-.59-3-2.37-.65-2.59-1.3-5.18-1.92-7.77a1.09,1.09,0,0,0-.8-.91,19.66,19.66,0,0,1-3.53-1.44,1.14,1.14,0,0,0-1.26.08q-3.49,2.13-7,4.21a2.43,2.43,0,0,1-3.49-.44l-6-6c-1.26-1.26-1.37-2.14-.45-3.67,1.4-2.34,2.8-4.67,4.22-7a1,1,0,0,0,.06-1,22.13,22.13,0,0,1-1.51-3.67,1,1,0,0,0-.78-.73C8,48.65,5.69,48,3.39,47.5,2.07,47.18.77,46.9,0,45.61Zm51.56-5.48A11.72,11.72,0,1,0,39.87,51.85,11.73,11.73,0,0,0,51.56,40.13Z"/></svg>