<svg id="Capa_1" data-name="Capa 1" xmlns="http://www.w3.org/2000/svg" viewBox="0 0 80 80"><defs><style>.cls-1{fill:#c89b3c;}</style></defs><title>Notificación 20</title><path class="cls-1" d="M39.92,65.68h-27a7.4,7.4,0,0,1-7.62-5.89,7.16,7.16,0,0,1,.92-5.36c1.4-2.34,2.77-4.69,4.2-7a19.4,19.4,0,0,0,2.93-10.59c0-4-.21-8.09.14-12.1C14.41,14,19.92,6.23,29.84,2.1A26.41,26.41,0,0,1,66,21a33,33,0,0,1,.63,6.29c.11,3.55,0,7.11.06,10.67a17.78,17.78,0,0,0,2.68,9.1c1.41,2.36,2.82,4.73,4.25,7.09A7.45,7.45,0,0,1,67,65.68Z"/><path class="cls-1" d="M48.12,71.9A7.88,7.88,0,0,1,39.94,80a7.88,7.88,0,0,1-8.08-8.1Z"/></svg>